<svg id="Layer_1" data-name="Layer 1" xmlns="http://www.w3.org/2000/svg" viewBox="0 0 316.25 83"><defs><style>.cls-1{fill:#ee5623;}.cls-2{fill:#efd932;}.cls-3{fill:#4ecdef;}.cls-4{fill:#fff;}</style></defs><title>Untitled-2</title><rect class="cls-1" x="40" y="65.5" width="5" height="6" rx="1.29" ry="1.29"/><rect class="cls-1" x="51" y="65.5" width="5" height="6" rx="1.29" ry="1.29"/><rect class="cls-1" x="51" y="22.5" width="5" height="6" rx="1.29" ry="1.29"/><rect class="cls-1" x="20" y="22.5" width="27" height="6" rx="1.29" ry="1.29"/><rect class="cls-2" x="21" y="52" width="5" height="5" rx="1.29" ry="1.29"/><rect class="cls-2" x="18" y="10" width="5" height="5" rx="1.29" ry="1.29"/><rect class="cls-2" x="28" y="10" width="28" height="5" rx="1.29" ry="1.29"/><rect class="cls-2" x="31" y="52" width="5" height="5" rx="1.29" ry="1.29"/><rect class="cls-2" x="41" y="52" width="15" height="5" rx="1.29" ry="1.29"/><rect class="cls-3" x="11" y="37" width="25" height="6" rx="1.29" ry="1.29"/><rect class="cls-3" x="41" y="37" width="5" height="6" rx="1.29" ry="1.29"/><rect class="cls-3" x="51" y="37" width="5" height="6" rx="1.29" ry="1.29"/><rect class="cls-1" x="10" y="22.5" width="5" height="6" rx="1.29" ry="1.29"/><rect class="cls-1" y="22.5" width="5" height="6" rx="1.29" ry="1.29"/><rect class="cls-4" x="55" width="4" height="83" rx="1.98" ry="1.98"/><path class="cls-4" d="M84.41,23.05c-5.76,0-8,2.85-8,6,0,9.1,20.73,5.21,20.73,18.43,0,6.85-4.72,10.64-13.16,10.64-6.25,0-10.91-3.18-12.78-6.75a1.93,1.93,0,0,1-.27-1,1.73,1.73,0,0,1,1.75-1.75,1.75,1.75,0,0,1,1.54.88A11,11,0,0,0,84,54.69c6,0,9.43-2.41,9.43-7.24C93.46,37.2,72.73,42,72.73,29c0-5,3.67-9.38,11.68-9.38,5.21,0,9.43,2.19,11.74,5.65a1.81,1.81,0,0,1,.33,1,1.76,1.76,0,0,1-3.18,1A10.85,10.85,0,0,0,84.41,23.05Z"/><path class="cls-4" d="M102.78,24.75c0-1.59.77-2.19,2.08-2.19s2.08,0.6,2.08,2.19A2.08,2.08,0,0,1,102.78,24.75ZM106.62,56a1.75,1.75,0,1,1-3.51,0V33.75a1.75,1.75,0,1,1,3.51,0V56Z"/><path class="cls-4" d="M151.47,41.37V56A1.75,1.75,0,1,1,148,56V42.08c0-4.33-1.54-7.29-6.85-7.29-4.72,0-6.85,2.52-6.85,6.58V56a1.75,1.75,0,1,1-3.51,0V42.08c0-4.33-1.37-7.29-6.75-7.29-5.1,0-6.75,3.07-6.75,7.68V56a1.75,1.75,0,0,1-3.51,0V33.75a1.75,1.75,0,0,1,3.51,0V35.5c0.93-2,3.56-3.84,7.13-3.84,4.5,0,7.4,1.65,8.72,3.84,1.37-2.14,3.78-3.84,8-3.84C149.55,31.66,151.47,36.71,151.47,41.37Z"/><path class="cls-4" d="M161.56,33.75V35.5A8.6,8.6,0,0,1,169,31.66c7.13,0,11.46,4.17,11.46,13.16S176.15,58,169,58a8.76,8.76,0,0,1-7.46-3.84V66.59a1.75,1.75,0,1,1-3.51,0V33.75A1.75,1.75,0,1,1,161.56,33.75ZM169,54.86c5,0,7.9-3.18,7.9-10s-3-10-8-10c-4.06,0-7.46,2.85-7.46,10S164.74,54.86,169,54.86Z"/><path class="cls-4" d="M188.92,20V51.35c0,2.19.71,3.13,2.19,3.13a1.65,1.65,0,0,1,0,3.29c-3.67,0-5.7-2.19-5.7-6.42V20a1.8,1.8,0,0,1,1.75-1.75A1.77,1.77,0,0,1,188.92,20Z"/><path class="cls-4" d="M207.07,31.66c8.77,0,10.47,7,10.47,10.69,0,1.59,0,3.51-2.19,3.51h-16c0,5.43,3.13,8.94,8.28,8.94a10.1,10.1,0,0,0,6.58-2.36,1.53,1.53,0,0,1,1-.33,1.59,1.59,0,0,1,1.59,1.59,1.64,1.64,0,0,1-.6,1.26A12.21,12.21,0,0,1,207.62,58c-7.29,0-11.85-4-11.85-13.22C195.78,36.38,199.94,31.66,207.07,31.66Zm0,3.18c-4.77,0-7.4,3.07-7.73,8h14.75C214.09,38.84,212.72,34.84,207.07,34.84Z"/><path class="cls-4" d="M233.39,20.42c10.47,0,16.95,4.94,16.95,18.48s-6.47,18.43-16.95,18.43h-7.73a1.85,1.85,0,0,1-1.87-1.86V22.28a1.85,1.85,0,0,1,1.87-1.86h7.73Zm-5.87,33.51h5.87c8.17,0,13.16-3.62,13.16-15s-5-15.08-13.16-15.08h-5.87V53.93Z"/><path class="cls-4" d="M259.11,37.75a1.79,1.79,0,0,1-1.43.77,1.59,1.59,0,0,1-1.59-1.59,1.7,1.7,0,0,1,.27-0.93c1.54-2.41,4.5-4.33,9.1-4.33,6.36,0,9.87,3.73,9.87,9.32V56.06a1.7,1.7,0,1,1-3.4,0v-2c-1.37,2.58-4.55,3.95-7.84,3.95-5.81,0-9.49-2.8-9.49-7.84,0-4.83,3.67-7.73,9.6-7.73h7.73V41c0-3.73-2.47-6-6.47-6A7.59,7.59,0,0,0,259.11,37.75Zm12.83,10.09v-2.3h-7.73c-3.56,0-6,1.48-6,4.66,0,2.85,2,4.66,6.25,4.66C268.27,54.86,271.94,52.5,271.94,47.84Z"/><path class="cls-4" d="M283.29,26.67A1.8,1.8,0,0,1,285,24.92a1.77,1.77,0,0,1,1.75,1.75v5.76h3.56a1.65,1.65,0,1,1,0,3.29H286.8V50.86c0,2.36,1.32,3.62,3.18,3.62a1.65,1.65,0,1,1,0,3.29c-4.33,0-6.69-2.91-6.69-6.91V35.72h-2.14a1.65,1.65,0,1,1,0-3.29h2.14V26.67Z"/><path class="cls-4" d="M300,37.75a1.79,1.79,0,0,1-1.43.77A1.59,1.59,0,0,1,297,36.93a1.7,1.7,0,0,1,.27-0.93c1.54-2.41,4.5-4.33,9.1-4.33,6.36,0,9.87,3.73,9.87,9.32V56.06a1.7,1.7,0,1,1-3.4,0v-2C311.47,56.67,308.29,58,305,58c-5.81,0-9.49-2.8-9.49-7.84,0-4.83,3.67-7.73,9.6-7.73h7.73V41c0-3.73-2.47-6-6.47-6A7.59,7.59,0,0,0,300,37.75Zm12.83,10.09v-2.3h-7.73c-3.57,0-6,1.48-6,4.66,0,2.85,2,4.66,6.25,4.66C309.17,54.86,312.85,52.5,312.85,47.84Z"/></svg>