<?xml version="1.0" encoding="utf-8"?>
<!-- Generator: Adobe Illustrator 19.2.1, SVG Export Plug-In . SVG Version: 6.00 Build 0)  -->
<svg version="1.1" id="Layer_1" xmlns="http://www.w3.org/2000/svg" xmlns:xlink="http://www.w3.org/1999/xlink" x="0px" y="0px"
	 viewBox="0 0 800 800" style="enable-background:new 0 0 800 800;" xml:space="preserve">
<style type="text/css">
	.st0{fill:url(#SVGID_1_);}
	.st1{fill:url(#SVGID_2_);}
</style>
<g>
	<linearGradient id="SVGID_1_" gradientUnits="userSpaceOnUse" x1="-249.5973" y1="643.3943" x2="486.3504" y2="303.7262">
		<stop  offset="0" style="stop-color:#554FC2"/>
		<stop  offset="0.5319" style="stop-color:#5F9AD4"/>
		<stop  offset="1" style="stop-color:#67DCE4"/>
	</linearGradient>
	<path class="st0" d="M400.1,611.7c33.4-19.1,61.8-46.1,82.7-78.3c6.5-9.9,12.3-20.4,17.3-31.3c14.4-31,22.4-65.7,22.4-102.2
		s-8-71.2-22.4-102.2c-47.1,10.3-82.2,52.2-82.2,102.2c0,24.2-6.9,47-17.8,66.8c-17.4,31.9-47.1,56.3-82.6,66.8
		c-11.4,3.4-23.3,5.4-35.6,5.6c-1.3,0.1-2.7,0.1-4.1,0.1c-76.8,0-139.3-62.3-139.3-139.3c0-76.8,62.4-139.3,139.3-139.3
		c1.3,0,2.7,0,4.1,0.1c20.7-35.6,49-66.2,82.7-89.5c-27-10.2-56.2-15.8-86.8-15.8c-135.1,0-244.5,109.4-244.5,244.5
		s109.4,244.7,244.5,244.7c30.6,0,60-5.6,86.9-16C377.1,624,388.9,618.4,400.1,611.7z"/>
	<linearGradient id="SVGID_2_" gradientUnits="userSpaceOnUse" x1="791.2048" y1="219.7423" x2="315.6694" y2="538.653">
		<stop  offset="0" style="stop-color:#554FC2"/>
		<stop  offset="1" style="stop-color:#67DCE4"/>
	</linearGradient>
	<path class="st1" d="M400.1,188.1c-33.3,19.2-61.7,46.2-82.6,78.3c-6.5,9.9-12.3,20.4-17.3,31.3c-14.4,31-22.4,65.7-22.4,102.2
		s8,71.2,22.4,102.2c47-10.3,82.2-52.2,82.2-102.2c0-18.5,4.1-36.1,10.9-52.4c0.9-2.2,2-4.6,3-6.8c1.2-2.6,2.5-5.1,3.8-7.6
		c17.5-31.9,47.3-56.3,82.7-66.8c11.3-3.4,23.2-5.4,35.5-5.6c1.4-0.1,2.7-0.1,4.2-0.1c76.8,0,139.2,62.4,139.2,139.3
		c0,77-62.3,139.3-139.2,139.3c-1.4,0-2.7,0-4.2-0.1c-20.6,35.7-48.8,66.4-82.7,89.5c27,10.3,56.3,16,86.9,16
		c135.1,0,244.5-109.6,244.5-244.7S657.6,155.4,522.5,155.4c-30.5,0-59.8,5.6-86.8,15.8C423.3,175.9,411.4,181.5,400.1,188.1z"/>
</g>
</svg>
