<?xml version="1.0" standalone="no"?>
<!DOCTYPE svg PUBLIC "-//W3C//DTD SVG 20010904//EN"
 "http://www.w3.org/TR/2001/REC-SVG-20010904/DTD/svg10.dtd">
<svg version="1.0" xmlns="http://www.w3.org/2000/svg"
 width="260.000000pt" height="260.000000pt" viewBox="0 0 260.000000 260.000000"
 preserveAspectRatio="xMidYMid meet">
<metadata>
Created by potrace 1.11, written by Peter Selinger 2001-2013
</metadata>
<g transform="translate(0.000000,260.000000) scale(0.100000,-0.100000)"
fill="#000000" stroke="none">
<path d="M817 2165 c-1 -2 -31 -6 -66 -9 -35 -4 -107 -21 -161 -39 -356 -120
-596 -464 -584 -840 7 -228 92 -424 254 -587 246 -247 602 -321 925 -193 270
107 475 351 529 628 4 17 9 41 11 55 7 33 7 208 0 240 -21 104 -26 123 -47
183 -20 55 -23 58 -47 52 -86 -21 -184 -101 -225 -184 -28 -56 -37 -91 -42
-156 -6 -88 -14 -135 -34 -186 -77 -195 -256 -319 -460 -319 -134 0 -250 48
-346 144 -267 267 -150 712 215 820 30 9 74 16 97 16 42 0 45 2 86 63 43 64
170 198 223 235 l30 21 -30 11 c-55 21 -169 41 -248 44 -42 1 -78 2 -80 1z"/>
<path d="M1625 2158 c-131 -16 -261 -65 -385 -147 -61 -40 -196 -174 -205
-202 -4 -11 -10 -19 -14 -19 -17 0 -102 -191 -125 -279 -27 -108 -34 -254 -16
-353 17 -93 60 -218 76 -218 31 0 129 56 170 98 71 70 102 141 110 252 23 298
211 491 489 501 213 8 426 -152 480 -361 45 -172 0 -343 -121 -471 -82 -86
-218 -149 -320 -149 -41 0 -43 -2 -97 -77 -52 -74 -157 -183 -212 -219 -31
-20 -24 -27 50 -48 63 -19 172 -32 250 -30 256 6 503 131 660 334 291 377 221
926 -154 1214 -181 139 -405 201 -636 174z"/>
</g>
</svg>
